<?xml version="1.0" encoding="UTF-8"?><svg id="Layer_2" xmlns="http://www.w3.org/2000/svg" viewBox="0 0 877.71 456.41"><defs><style>.cls-1{fill:#fff;}</style></defs><g id="Layer_1-2"><g><g><path d="m49.13,372.52c8.25-1.45,10.76-7.64,10.76-15.88v-20.67l-23.66-22.84c-1.07,7-2.51,17.29-2.51,28.77,0,26.53,6.81,32.14,15.42,30.63Z"/><polygon points="171.5 168.07 170.06 168.33 158.94 307.62 181.89 303.58 171.5 168.07"/><polygon points="498.44 221.58 517.67 94.84 474.77 53.28 496.65 221.9 498.44 221.58"/><polygon points="325.31 252.11 344.55 125.32 301.64 83.81 323.52 252.43 325.31 252.11"/><path d="m864.36,58.81c-.17-.16-50.62-49.02-50.79-49.18-.02-.02-.05-.04-.08-.07,8.21,8.12,12.41,21.84,12.41,42.77v155.26c0,42.67-21.51,60.09-58.45,66.6l-58.09,10.24V35.05l-20.22-19.57v35.14l-48.77,8.6v77.09l40.52-7.14v35.86l-40.52,7.14v89.29l49.12-8.66v35.14l-93.94,16.57V53.98l-19.3-18.59v272.52l-43.03,7.59v-166.38l-1.79.32-23.31,170.49-23.3,4.11-24.02-162.14-1.79.32v166.38l-36.57,6.45V84.61l-19.3-18.69v272.52l-43.03,7.59v-166.38l-1.79.32-23.31,170.49-23.3,4.11-24.02-162.14-1.79.32v166.38l-36.58,6.45v-214.65l-50.54-48.95,36.57,266.07-45.54,8.03-3.58-37.74-30.48,5.37-3.58,39-37.29,6.58,28.28-233.6-38.41-37.13v218.01c0,42.31-19,62.16-55.94,68.67-14.22,2.51-25.79.48-34.08-7.01h0s0,0,0,0c.15.15,51.07,49.47,51.25,49.63,8.33,7.93,20.1,10.12,34.65,7.56,24.11-4.25,40.57-14.19,49.1-32.35l16.97,16.39,574.66-101.33v-22.65l19.86,19.15,58.09-10.24c36.93-6.51,58.45-23.93,58.45-66.6V102.5c0-21.73-4.51-35.7-13.35-43.69Z"/><path d="m748.46,149.8l17.03-2.75c.55-.09,1.04.34,1.02.9l-3.07,91.58c-.02.46.33.86.79.9.03,0,.06,0,.09,0,.42,0,.79-.3.87-.73l21.46-123.43c.05-.28-.04-.57-.24-.77-.2-.2-.49-.29-.77-.25l-15.99,2.75c-.54.09-1.03-.32-1.03-.87V36.84c0-.46-.35-.84-.81-.88-.48-.06-.87.28-.94.73l-19.41,112.09c-.05.28.04.57.24.77s.48.29.77.25Z"/></g><g><path class="cls-1" d="m104.7,336.55c0,42.31-19,62.16-55.93,68.67-30.48,5.37-48.77-10.05-48.77-55.59,0-15.42,1.43-27.15,2.51-33.43l33.71-3.07c-1.07,7-2.51,17.29-2.51,28.77,0,26.53,6.81,32.14,15.42,30.63,8.25-1.45,10.76-7.64,10.76-15.88V126.45l44.82-7.9v218.01Z"/><path class="cls-1" d="m181.89,303.58l-10.4-135.5-1.43.25-11.12,139.3,22.95-4.05Zm53.43,64.44l-45.54,8.03-3.58-37.74-30.48,5.37-3.58,39-37.29,6.58,33.71-278.46,50.2-8.85,36.57,266.07Z"/><path class="cls-1" d="m403.11,338.44l-43.03,7.59v-166.38l-1.79.32-23.31,170.49-23.3,4.11-24.02-162.14-1.79.32v166.38l-36.58,6.45V93.05l52.35-9.23,21.87,168.62,1.79-.32,26.89-177.22,50.92-8.98v272.52Z"/><path class="cls-1" d="m576.25,307.91l-43.03,7.59v-166.38l-1.79.32-23.31,170.49-23.3,4.11-24.02-162.14-1.79.32v166.38l-36.58,6.45V62.52l52.35-9.23,21.87,168.62,1.79-.32,26.89-177.22,50.92-8.98v272.52Z"/><path class="cls-1" d="m689.49,287.94l-93.94,16.56V31.99l93.59-16.5v35.14l-48.77,8.6v77.09l40.52-7.14v35.86l-40.52,7.14v89.29l49.12-8.66v35.14Z"/><path class="cls-1" d="m766.37,1.87l-57.01,10.05v272.52l58.09-10.24c36.93-6.51,58.45-23.93,58.45-66.6V52.34c0-46.26-20.44-57.35-59.52-50.46Zm-1.18,237.83c-.07.42-.44.73-.87.73-.03,0-.06,0-.09,0-.46-.05-.8-.44-.79-.9l3.07-91.58c.02-.55-.47-.99-1.02-.9l-17.03,2.75c-.29.04-.57-.05-.77-.25s-.29-.49-.24-.77l19.41-112.09c.08-.45.46-.78.94-.73.46.04.8.42.8.88v80.3c0,.55.5.96,1.03.87l15.99-2.75c.29-.04.57.04.77.25.2.2.29.49.24.77l-21.46,123.43Z"/></g></g></g></svg>